<svg width="149" height="34" fill="none" xmlns="http://www.w3.org/2000/svg"><path fill-rule="evenodd" clip-rule="evenodd" d="M147.559.745a3.777 3.777 0 01.713 5.196l-11.034 15.595-.064.092v9.044a3.692 3.692 0 01-7.336 0l-.033-.388v-8.602l-.07-.097-11.573-15.698a3.696 3.696 0 01.793-5.164 3.652 3.652 0 012.726-.674c.969.145 1.84.672 2.419 1.462l8.987 12.239.303.41.291-.416 8.637-12.174A3.67 3.67 0 01145.346 0a3.63 3.63 0 012.213.745zM110.33 18.63a3.854 3.854 0 00-3.71-3.85h-6.396v-3.568c.054-1.17.54-3.513 3.892-3.513h7.341a3.848 3.848 0 100-7.695h-7.341c-8.335 0-11.59 5.246-11.59 11.09V30.11a3.853 3.853 0 003.85 3.837 3.854 3.854 0 003.848-3.848v-7.62h6.396a3.854 3.854 0 003.71-3.85zM74.254 3.858A3.854 3.854 0 0070.4.011a3.854 3.854 0 00-3.849 3.847v19.006c0 5.839 3.26 11.09 11.595 11.09h7.557a3.848 3.848 0 100-7.696h-7.557c-3.352 0-3.838-2.342-3.892-3.513V3.858zM22.132 2.11a19.977 19.977 0 00-9.02-2.067C5.398.043 0 4.268 0 10.285c0 6.972 5.938 9.093 11.794 10.226 4.697.988 6.127 1.808 6.127 3.497 0 1.57-2.03 2.65-5.058 2.65a14.821 14.821 0 01-6.32-1.592l-.87-.464-.167-.092a4.642 4.642 0 00-1.77-.41H3.61a3.735 3.735 0 00-2.996 5.676c0 .006.654.95 2.813 2.062a20.043 20.043 0 009.435 2.158c7.6 0 12.907-4.182 12.907-10.118 0-7.295-6.386-9.421-11.19-10.387-5.16-.999-6.737-1.743-6.737-3.373 0-1.63 2.051-2.774 4.977-2.774 2.216.059 4.4.548 6.43 1.441a3.24 3.24 0 001.316.275 3.633 3.633 0 003.31-2.234c.385-.873.418-1.86.09-2.757a3.368 3.368 0 00-1.834-1.959z" fill="#515151"/><path fill-rule="evenodd" clip-rule="evenodd" d="M29 17c0-9.389 7.611-17 17-17a17 17 0 0117 17c0 9.389-7.611 17-17 17s-17-7.611-17-17zm7.407.237A9.594 9.594 0 0046 26.809a9.594 9.594 0 009.599-9.572c0-3.935-2.379-3.648-5.766-3.24-1.175.143-2.472.299-3.833.299-1.361 0-2.658-.157-3.832-.298-3.386-.41-5.761-.696-5.761 3.239z" fill="url(#paint0_linear)"/><defs><linearGradient id="paint0_linear" x1="22.774" y1="10.776" x2="39.776" y2="40.226" gradientUnits="userSpaceOnUse"><stop stop-color="#00D3AF"/><stop offset="1" stop-color="#5949AA"/></linearGradient></defs></svg>